# xmcd
# 
# Track frame offsets:
#     150
#     26736
#     45861
#     66259
#     81821
#     100570
#     121193
#     137804
#     152204
#     164129
#     184663
#     201980
#     222266
#     235277
#     256504
#     280804
#     293254
#     320327
# 
# Disc length: 4544
# 
# Revision: 2
# Processed by: cddbd v1.5.2PL0 Copyright (c) Steve Scherf et al.
# Submitted via: BonkEnc v1.0.8
# 
DISCID=f711be12
DTITLE=Rob Tognoni - Ironyard Revisited
DYEAR=2008
DGENRE=Bluesrock
TTITLE0=Words of a desperate man
TTITLE1=No Guarantee
TTITLE2=See me in the evening
TTITLE3=Hoot, Shhot, Electrocute
TTITLE4=The Ironyard
TTITLE5=The Real Thing
TTITLE6=Devil outta me
TTITLE7=Rock 'n Roll Business man
TTITLE8=Blow your nuts off with a gun
TTITLE9=Mountain Man
TTITLE10=All Mine
TTITLE11=Can't take lovin'
TTITLE12=Lands of Cirrus
TTITLE13=Silver Machine
TTITLE14=Hey Joe (Live, Bonus Track)
TTITLE15=Guitar Boogie Refried (Live, Bonus Track)
TTITLE16=Crossword Blues (Live, Bonus Track)
TTITLE17=The Good die young (Acoustic Instrumental Bonus Track)
EXTD=
EXTT0=
EXTT1=
EXTT2=
EXTT3=
EXTT4=
EXTT5=
EXTT6=
EXTT7=
EXTT8=
EXTT9=
EXTT10=
EXTT11=
EXTT12=
EXTT13=
EXTT14=
EXTT15=
EXTT16=
EXTT17=
PLAYORDER=
